<svg viewBox="0 0 100 100" xmlns="http://www.w3.org/2000/svg" fill="none" role="img" aria-label="Production Management">

  <g stroke="#9E2B2B" stroke-width="2">
    <path d="M8 24 L8 8 L24 8"></path>
    <path d="M76 8 L92 8 L92 24"></path>
    <path d="M92 76 L92 92 L76 92"></path>
    <path d="M24 92 L8 92 L8 76"></path>
  </g>
  <g stroke="#e4b169" stroke-width="0.8" opacity="0.24">
    <path d="M22 30 L78 30"></path><path d="M22 44 L78 44"></path>
    <path d="M22 58 L78 58"></path><path d="M22 72 L78 72"></path>
  </g>
  <g fill="#e4b169" opacity="0.48">
    <rect x="24" y="26" width="20" height="8"></rect>
    <rect x="40" y="40" width="22" height="8"></rect>
    <rect x="30" y="68" width="22" height="8"></rect>
  </g>
  <rect x="50" y="54" width="24" height="8" fill="#9E2B2B" opacity="0.9"></rect>
  <g stroke="#9E2B2B" stroke-width="1.4" stroke-dasharray="3 2" opacity="0.6">
    <path d="M44 30 L48 30 L48 40 L44 40"></path>
    <path d="M62 44 L66 44 L66 54 L62 54"></path>
  </g>
</svg>